<mxfile host="app.diagrams.net" modified="2022-09-17T18:45:10.611Z" agent="5.0 (Macintosh; Intel Mac OS X 10_15_7) AppleWebKit/537.36 (KHTML, like Gecko) Chrome/105.0.0.0 Safari/537.36" etag="pHTznRPe1DhX8e1d7NdH" version="20.3.2" type="github">
  <diagram id="99RSWZi8U47nohUU0T42" name="Page-1">
    <mxGraphModel dx="890" dy="1324" grid="1" gridSize="10" guides="1" tooltips="1" connect="1" arrows="1" fold="1" page="1" pageScale="1" pageWidth="850" pageHeight="1100" math="0" shadow="0">
      <root>
        <mxCell id="0" />
        <mxCell id="1" parent="0" />
        <mxCell id="GtpJr-g6MhoRaKqY54JR-1" value="" style="whiteSpace=wrap;html=1;aspect=fixed;" parent="1" vertex="1">
          <mxGeometry x="70" y="574" width="500" height="500" as="geometry" />
        </mxCell>
        <mxCell id="GtpJr-g6MhoRaKqY54JR-2" value="" style="shape=image;verticalLabelPosition=bottom;labelBackgroundColor=default;verticalAlign=top;aspect=fixed;imageAspect=0;image=data:image/png,iVBORw0KGgoAAAANSUhEUgAAACAAAABACAYAAAB7jnWuAAAAAXNSR0IArs4c6QAAAWBJREFUaEPtmEEKgzAQReN1XHmlQvZCDiJ0L/RKXXkdS8TIJJ1JBo0o7e+mpab5Py/T0fzGXPxqLtY3MAACIAACP0VgJl1VvTD1wHVyKkK7uJ9n7q1dvnuOo39Tza0ZtIkGgfT+sQoaxoD/bVZDZUAS5oxQE/5zMCcZKRnYsB69a0rbkjNQRdwLJ1sT1cfpBjhyj7Y1nXOL9v8ZSGtBJNBbK/3nd9cjV4jNexhYodc07RaS+gS35YFAdrW0D6RNJ4gJ1R4ui6RLfWBbDCUVKphDpB1XdFaNf2EiNYGzDMEACIAACIAACIAACIBATQLpk7VqbtUgHz5ongmRD+Qo3SkfiLb9isOpLqA443QctkgVUNzWAD0Fc0WnuU6P6VEN0JOtlA9oBNJYL/yGDSj8KtKQonNuWRyXD5LcLwLAJGEcoK+iXxKS3Hk/NVgzGyilZJrue3iM9l5wWEiaAAZAAAQ+bxSjQVXzt/kAAAAASUVORK5CYIIA;" parent="1" vertex="1">
          <mxGeometry x="20" y="550" width="32" height="64" as="geometry" />
        </mxCell>
        <mxCell id="GtpJr-g6MhoRaKqY54JR-3" value="" style="rounded=0;whiteSpace=wrap;html=1;" parent="1" vertex="1">
          <mxGeometry x="70" y="614" width="450" height="20" as="geometry" />
        </mxCell>
        <mxCell id="GtpJr-g6MhoRaKqY54JR-4" value="" style="rounded=0;whiteSpace=wrap;html=1;" parent="1" vertex="1">
          <mxGeometry x="160" y="684" width="410" height="20" as="geometry" />
        </mxCell>
        <mxCell id="GtpJr-g6MhoRaKqY54JR-5" value="" style="rounded=0;whiteSpace=wrap;html=1;" parent="1" vertex="1">
          <mxGeometry x="70" y="744" width="440" height="20" as="geometry" />
        </mxCell>
        <mxCell id="GtpJr-g6MhoRaKqY54JR-7" value="" style="rounded=0;whiteSpace=wrap;html=1;" parent="1" vertex="1">
          <mxGeometry x="70" y="884" width="250" height="20" as="geometry" />
        </mxCell>
        <mxCell id="GtpJr-g6MhoRaKqY54JR-8" value="" style="rounded=0;whiteSpace=wrap;html=1;" parent="1" vertex="1">
          <mxGeometry x="120" y="814" width="450" height="20" as="geometry" />
        </mxCell>
        <mxCell id="GtpJr-g6MhoRaKqY54JR-11" value="" style="rounded=0;whiteSpace=wrap;html=1;" parent="1" vertex="1">
          <mxGeometry x="390" y="934" width="180" height="20" as="geometry" />
        </mxCell>
        <mxCell id="GtpJr-g6MhoRaKqY54JR-13" value="" style="rounded=1;whiteSpace=wrap;html=1;strokeWidth=2;fillWeight=4;hachureGap=8;hachureAngle=45;fillColor=#1ba1e2;sketch=1;" parent="1" vertex="1">
          <mxGeometry x="70" y="964" width="500" height="60" as="geometry" />
        </mxCell>
        <mxCell id="GtpJr-g6MhoRaKqY54JR-14" value="" style="rounded=0;whiteSpace=wrap;html=1;" parent="1" vertex="1">
          <mxGeometry x="70" y="1024" width="500" height="60" as="geometry" />
        </mxCell>
        <mxCell id="GtpJr-g6MhoRaKqY54JR-15" value="&lt;h2&gt;&lt;font face=&quot;Tahoma&quot; style=&quot;font-size: 23px;&quot;&gt;GRIME&lt;/font&gt;&lt;/h2&gt;" style="rounded=0;whiteSpace=wrap;html=1;align=center;" parent="1" vertex="1">
          <mxGeometry x="70" y="1024" width="120" height="60" as="geometry" />
        </mxCell>
        <mxCell id="GtpJr-g6MhoRaKqY54JR-17" value="" style="rounded=0;whiteSpace=wrap;html=1;fontFamily=Tahoma;fontSize=23;fillColor=#d5e8d4;strokeColor=#82b366;" parent="1" vertex="1">
          <mxGeometry x="200" y="1034" width="20" height="40" as="geometry" />
        </mxCell>
        <mxCell id="GtpJr-g6MhoRaKqY54JR-18" value="" style="rounded=0;whiteSpace=wrap;html=1;fontFamily=Tahoma;fontSize=23;fillColor=#d5e8d4;strokeColor=#82b366;" parent="1" vertex="1">
          <mxGeometry x="224" y="1034" width="20" height="40" as="geometry" />
        </mxCell>
        <mxCell id="GtpJr-g6MhoRaKqY54JR-19" value="" style="rounded=0;whiteSpace=wrap;html=1;fontFamily=Tahoma;fontSize=23;fillColor=#d5e8d4;strokeColor=#82b366;" parent="1" vertex="1">
          <mxGeometry x="249" y="1034" width="20" height="40" as="geometry" />
        </mxCell>
        <mxCell id="GtpJr-g6MhoRaKqY54JR-21" value="&lt;h2&gt;&lt;font face=&quot;Tahoma&quot; style=&quot;font-size: 23px;&quot;&gt;TIME&lt;/font&gt;&lt;/h2&gt;" style="rounded=0;whiteSpace=wrap;html=1;align=center;" parent="1" vertex="1">
          <mxGeometry x="450" y="1024" width="120" height="60" as="geometry" />
        </mxCell>
        <mxCell id="GtpJr-g6MhoRaKqY54JR-22" value="&lt;h3&gt;&lt;span style=&quot;font-weight: normal;&quot;&gt;3:00&lt;/span&gt;&lt;/h3&gt;" style="rounded=0;whiteSpace=wrap;html=1;fontFamily=Tahoma;fontSize=23;" parent="1" vertex="1">
          <mxGeometry x="370" y="1024" width="80" height="60" as="geometry" />
        </mxCell>
        <mxCell id="GtpJr-g6MhoRaKqY54JR-23" value="" style="shape=image;html=1;verticalAlign=top;verticalLabelPosition=bottom;labelBackgroundColor=#ffffff;imageAspect=0;aspect=fixed;image=https://cdn1.iconfinder.com/data/icons/unicons-line-vol-6/24/water-128.png;fontFamily=Tahoma;fontSize=23;rotation=-90;" parent="1" vertex="1">
          <mxGeometry x="120" y="765" width="49" height="49" as="geometry" />
        </mxCell>
        <mxCell id="GtpJr-g6MhoRaKqY54JR-24" value="" style="shape=image;html=1;verticalAlign=top;verticalLabelPosition=bottom;labelBackgroundColor=#ffffff;imageAspect=0;aspect=fixed;image=https://cdn1.iconfinder.com/data/icons/unicons-line-vol-6/24/water-128.png;fontFamily=Tahoma;fontSize=23;rotation=-90;" parent="1" vertex="1">
          <mxGeometry x="295.5" y="634" width="49" height="49" as="geometry" />
        </mxCell>
        <mxCell id="x-1yXsluAAALA15zDipo-8" style="edgeStyle=orthogonalEdgeStyle;rounded=0;orthogonalLoop=1;jettySize=auto;html=1;entryX=0.5;entryY=0;entryDx=0;entryDy=0;strokeWidth=5;fontFamily=Tahoma;fontSize=23;" edge="1" parent="1" source="x-1yXsluAAALA15zDipo-2" target="GtpJr-g6MhoRaKqY54JR-1">
          <mxGeometry relative="1" as="geometry" />
        </mxCell>
        <mxCell id="x-1yXsluAAALA15zDipo-2" value="Title screen" style="whiteSpace=wrap;html=1;aspect=fixed;fontFamily=Tahoma;fontSize=23;" vertex="1" parent="1">
          <mxGeometry x="70" y="10" width="500" height="500" as="geometry" />
        </mxCell>
      </root>
    </mxGraphModel>
  </diagram>
</mxfile>
